# xmcd
#
# Track frame offsets:
#	150
#	18858
#	37828
#	55521
#	77821
#	97691
#	117809
#	133521
#	159323
#	175463
#	196107
#
# Disc length: 2861 seconds
#
# Revision: 0
# Processed by: cddbd v1.5.2PL0 Copyright (c) Steve Scherf et al.
# Submitted via: EasyCDDAExtractor 15.2.0.1
#
DISCID=730b2b0b
DTITLE=Latimore - Latt is Back
DYEAR=2003
DGENRE=Blues
TTITLE0=Gin and Juice
TTITLE1=Around the world
TTITLE2=Plain Jane
TTITLE3=Chivalry
TTITLE4=Man's job
TTITLE5=You're the reason
TTITLE6=Keys to my door
TTITLE7=What good is love
TTITLE8=Jump suit Judy
TTITLE9=If she's gonna leave
TTITLE10=Everyday
EXTD=
EXTT0=
EXTT1=
EXTT2=
EXTT3=
EXTT4=
EXTT5=
EXTT6=
EXTT7=
EXTT8=
EXTT9=
EXTT10=
PLAYORDER=
